ply
format ascii 1.0
comment Created in Blender version 4.3.2
element vertex 162
property float x
property float y
property float z
element face 320
property list uchar uint vertex_indices
end_header
0 0 -1
0.7236073 -0.5257253 -0.44721952
-0.27638802 -0.85064924 -0.44721985
-0.8944262 0 -0.44721562
-0.27638802 0.85064924 -0.44721985
0.7236073 0.5257253 -0.44721952
0.27638802 -0.85064924 0.44721985
-0.7236073 -0.5257253 0.44721952
-0.7236073 0.5257253 0.44721952
0.27638802 0.85064924 0.44721985
0.8944262 0 0.44721562
0 0 1
-0.23282152 -0.7165631 -0.6575192
-0.16245556 -0.49999523 -0.8506544
-0.07760664 -0.23885271 -0.9679497
0.20318091 -0.14761785 -0.96794957
0.42532268 -0.30901137 -0.8506542
0.60954666 -0.4428564 -0.65751886
0.5319409 -0.6817124 -0.5023017
0.26286882 -0.80901164 -0.52573764
-0.029639274 -0.8641842 -0.50230193
0.81272924 0.29523772 -0.5023006
0.85064787 0 -0.5257359
0.81272924 -0.29523772 -0.5023006
0.20318091 0.14761785 -0.96794957
0.42532268 0.30901137 -0.8506542
0.60954666 0.4428564 -0.65751886
-0.7534417 0 -0.65751475
-0.5257298 0 -0.8506517
-0.25114697 0 -0.96794885
-0.48397142 -0.71656454 -0.5023017
-0.6881894 -0.4999969 -0.5257362
-0.83105063 -0.2388534 -0.50229865
-0.23282152 0.7165631 -0.6575192
-0.16245556 0.49999523 -0.8506544
-0.07760664 0.23885271 -0.9679497
-0.83105063 0.23885341 -0.50229865
-0.6881894 0.49999693 -0.5257362
-0.48397142 0.71656454 -0.5023017
-0.029639274 0.8641842 -0.50230193
0.26286882 0.8090117 -0.52573764
0.5319409 0.68171245 -0.5023017
0.95662576 -0.14761837 0.25114945
0.95105785 -0.30901262 -1.7517488e-08
0.8606976 -0.44285753 -0.25115085
0.8606976 0.44285753 -0.25115085
0.95105785 0.30901262 1.7517488e-08
0.95662576 0.14761837 0.25114945
0.1552151 -0.95542204 0.25115153
0 -0.99999994 -1.7517587e-08
-0.1552151 -0.95542204 -0.25115153
0.6871586 -0.6817153 -0.25115192
0.5877856 -0.8090167 1.7517639e-08
0.4360068 -0.8641879 0.25115204
-0.8606976 -0.44285753 0.25115085
-0.95105785 -0.30901262 -1.7517488e-08
-0.95662576 -0.14761837 -0.25114945
-0.4360068 -0.8641879 -0.25115204
-0.5877856 -0.80901676 1.7517639e-08
-0.6871585 -0.6817153 0.2511519
-0.6871586 0.6817153 0.25115192
-0.5877856 0.8090167 -1.7517639e-08
-0.4360068 0.8641879 -0.25115204
-0.95662576 0.14761837 -0.25114945
-0.95105785 0.30901262 1.7517488e-08
-0.8606976 0.44285753 0.25115085
0.4360068 0.8641879 0.25115204
0.5877856 0.80901676 -1.7517639e-08
0.6871585 0.6817153 -0.2511519
-0.1552151 0.95542204 -0.25115153
0 0.99999994 1.7517587e-08
0.1552151 0.95542204 0.25115153
0.83105063 -0.23885341 0.50229865
0.6881894 -0.49999693 0.5257362
0.48397142 -0.71656454 0.5023017
0.029639274 -0.8641842 0.50230193
-0.26286882 -0.8090117 0.52573764
-0.5319409 -0.68171245 0.5023017
-0.81272924 -0.29523772 0.5023006
-0.85064787 0 0.5257359
-0.81272924 0.29523772 0.5023006
-0.5319409 0.6817124 0.5023017
-0.26286882 0.80901164 0.52573764
0.029639274 0.8641842 0.50230193
0.48397142 0.71656454 0.5023017
0.6881894 0.4999969 0.5257362
0.83105063 0.2388534 0.50229865
0.07760664 -0.23885272 0.9679497
0.16245556 -0.49999526 0.8506544
0.23282152 -0.7165631 0.6575192
0.7534417 0 0.65751475
0.5257298 0 0.8506517
0.25114697 0 0.96794885
-0.20318091 -0.14761785 0.96794957
-0.42532268 -0.30901137 0.8506542
-0.60954666 -0.4428564 0.65751886
-0.20318091 0.14761785 0.96794957
-0.42532268 0.30901137 0.8506542
-0.60954666 0.4428564 0.65751886
0.07760664 0.23885272 0.9679497
0.16245556 0.49999526 0.8506544
0.23282152 0.7165631 0.6575192
0.3618003 0.26286295 0.8944292
0.63819355 0.2628641 0.72361004
0.44720915 0.52572817 0.7236116
-0.13819726 0.4253195 0.8944299
-0.052789573 0.6881849 0.72361237
-0.36180368 0.58777845 0.72361225
-0.4472099 0 0.8944291
-0.6708166 0.16245703 0.7236109
-0.6708166 -0.16245703 0.7236109
-0.13819729 -0.4253195 0.8944299
-0.36180368 -0.58777845 0.72361225
-0.052789573 -0.6881849 0.72361237
0.3618003 -0.26286295 0.8944292
0.4472092 -0.52572817 0.72361165
0.63819355 -0.26286408 0.72361004
0.8618042 0.42532197 0.27639621
0.80901927 0.5877821 0
0.67082053 0.68818915 0.2763974
-0.13819852 0.9510551 0.27639708
-0.30901647 0.95105666 -4.9197246e-07
-0.44721505 0.85064876 0.27639726
-0.94721323 0.16245763 0.2763959
-0.99999994 -3.60779e-07 6.231637e-07
-0.94721293 -0.16245788 0.27639657
-0.44721577 -0.8506484 0.27639684
-0.30901718 -0.9510564 -7.871547e-07
-0.13819925 -0.9510551 0.27639678
0.67082036 -0.68818974 0.27639616
0.8090187 -0.587783 -1.9022905e-06
0.8618041 -0.4253232 0.27639443
0.3090172 0.9510564 -2.6148812e-14
0.4472156 0.8506484 -0.2763977
0.13819908 0.95105493 -0.27639753
-0.80901843 0.5877833 -7.8446486e-14
-0.670819 0.6881907 -0.2763973
-0.8618031 0.42532393 -0.27639633
-0.80901843 -0.5877833 8.031426e-14
-0.8618032 -0.42532396 -0.27639633
-0.67081904 -0.6881907 -0.2763973
0.3090172 -0.9510564 2.8016584e-14
0.13819909 -0.95105493 -0.27639753
0.44721562 -0.8506483 -0.2763977
1 0 0
0.94721323 -0.16245754 -0.27639604
0.94721323 0.16245757 -0.27639604
0.36180347 0.5877792 -0.7236116
0.1381968 0.4253213 -0.8944291
0.052789096 0.6881863 -0.72361094
-0.44721058 0.5257271 -0.72361153
-0.3618012 0.26286253 -0.8944289
-0.63819474 0.26286283 -0.72360945
-0.63819456 -0.2628637 -0.72360927
-0.36180133 -0.26286435 -0.8944284
-0.44721052 -0.52572864 -0.72361046
0.670817 0.1624568 -0.72361064
0.67081755 -0.16245775 -0.72361004
0.44721097 -7.3795553e-07 -0.8944285
0.05279035 -0.68818533 -0.7236118
0.13819869 -0.42532063 -0.89442915
0.36180496 -0.58777916 -0.72361094
3 0 15 14
3 1 17 23
3 0 14 29
3 0 29 35
3 0 35 24
3 1 23 44
3 2 20 50
3 3 32 56
3 4 38 62
3 5 41 68
3 1 44 51
3 2 50 57
3 3 56 63
3 4 62 69
3 5 68 45
3 6 74 89
3 7 77 95
3 8 80 98
3 9 83 101
3 10 86 90
3 92 99 11
3 91 102 92
3 90 103 91
3 92 102 99
3 102 100 99
3 91 103 102
3 103 104 102
3 102 104 100
3 104 101 100
3 90 86 103
3 86 85 103
3 103 85 104
3 85 84 104
3 104 84 101
3 84 9 101
3 99 96 11
3 100 105 99
3 101 106 100
3 99 105 96
3 105 97 96
3 100 106 105
3 106 107 105
3 105 107 97
3 107 98 97
3 101 83 106
3 83 82 106
3 106 82 107
3 82 81 107
3 107 81 98
3 81 8 98
3 96 93 11
3 97 108 96
3 98 109 97
3 96 108 93
3 108 94 93
3 97 109 108
3 109 110 108
3 108 110 94
3 110 95 94
3 98 80 109
3 80 79 109
3 109 79 110
3 79 78 110
3 110 78 95
3 78 7 95
3 93 87 11
3 94 111 93
3 95 112 94
3 93 111 87
3 111 88 87
3 94 112 111
3 112 113 111
3 111 113 88
3 113 89 88
3 95 77 112
3 77 76 112
3 112 76 113
3 76 75 113
3 113 75 89
3 75 6 89
3 87 92 11
3 88 114 87
3 89 115 88
3 87 114 92
3 114 91 92
3 88 115 114
3 115 116 114
3 114 116 91
3 116 90 91
3 89 74 115
3 74 73 115
3 115 73 116
3 73 72 116
3 116 72 90
3 72 10 90
3 47 86 10
3 46 117 47
3 45 118 46
3 47 117 86
3 117 85 86
3 46 118 117
3 118 119 117
3 117 119 85
3 119 84 85
3 45 68 118
3 68 67 118
3 118 67 119
3 67 66 119
3 119 66 84
3 66 9 84
3 71 83 9
3 70 120 71
3 69 121 70
3 71 120 83
3 120 82 83
3 70 121 120
3 121 122 120
3 120 122 82
3 122 81 82
3 69 62 121
3 62 61 121
3 121 61 122
3 61 60 122
3 122 60 81
3 60 8 81
3 65 80 8
3 64 123 65
3 63 124 64
3 65 123 80
3 123 79 80
3 64 124 123
3 124 125 123
3 123 125 79
3 125 78 79
3 63 56 124
3 56 55 124
3 124 55 125
3 55 54 125
3 125 54 78
3 54 7 78
3 59 77 7
3 58 126 59
3 57 127 58
3 59 126 77
3 126 76 77
3 58 127 126
3 127 128 126
3 126 128 76
3 128 75 76
3 57 50 127
3 50 49 127
3 127 49 128
3 49 48 128
3 128 48 75
3 48 6 75
3 53 74 6
3 52 129 53
3 51 130 52
3 53 129 74
3 129 73 74
3 52 130 129
3 130 131 129
3 129 131 73
3 131 72 73
3 51 44 130
3 44 43 130
3 130 43 131
3 43 42 131
3 131 42 72
3 42 10 72
3 66 71 9
3 67 132 66
3 68 133 67
3 66 132 71
3 132 70 71
3 67 133 132
3 133 134 132
3 132 134 70
3 134 69 70
3 68 41 133
3 41 40 133
3 133 40 134
3 40 39 134
3 134 39 69
3 39 4 69
3 60 65 8
3 61 135 60
3 62 136 61
3 60 135 65
3 135 64 65
3 61 136 135
3 136 137 135
3 135 137 64
3 137 63 64
3 62 38 136
3 38 37 136
3 136 37 137
3 37 36 137
3 137 36 63
3 36 3 63
3 54 59 7
3 55 138 54
3 56 139 55
3 54 138 59
3 138 58 59
3 55 139 138
3 139 140 138
3 138 140 58
3 140 57 58
3 56 32 139
3 32 31 139
3 139 31 140
3 31 30 140
3 140 30 57
3 30 2 57
3 48 53 6
3 49 141 48
3 50 142 49
3 48 141 53
3 141 52 53
3 49 142 141
3 142 143 141
3 141 143 52
3 143 51 52
3 50 20 142
3 20 19 142
3 142 19 143
3 19 18 143
3 143 18 51
3 18 1 51
3 42 47 10
3 43 144 42
3 44 145 43
3 42 144 47
3 144 46 47
3 43 145 144
3 145 146 144
3 144 146 46
3 146 45 46
3 44 23 145
3 23 22 145
3 145 22 146
3 22 21 146
3 146 21 45
3 21 5 45
3 26 41 5
3 25 147 26
3 24 148 25
3 26 147 41
3 147 40 41
3 25 148 147
3 148 149 147
3 147 149 40
3 149 39 40
3 24 35 148
3 35 34 148
3 148 34 149
3 34 33 149
3 149 33 39
3 33 4 39
3 33 38 4
3 34 150 33
3 35 151 34
3 33 150 38
3 150 37 38
3 34 151 150
3 151 152 150
3 150 152 37
3 152 36 37
3 35 29 151
3 29 28 151
3 151 28 152
3 28 27 152
3 152 27 36
3 27 3 36
3 27 32 3
3 28 153 27
3 29 154 28
3 27 153 32
3 153 31 32
3 28 154 153
3 154 155 153
3 153 155 31
3 155 30 31
3 29 14 154
3 14 13 154
3 154 13 155
3 13 12 155
3 155 12 30
3 12 2 30
3 21 26 5
3 22 156 21
3 23 157 22
3 21 156 26
3 156 25 26
3 22 157 156
3 157 158 156
3 156 158 25
3 158 24 25
3 23 17 157
3 17 16 157
3 157 16 158
3 16 15 158
3 158 15 24
3 15 0 24
3 12 20 2
3 13 159 12
3 14 160 13
3 12 159 20
3 159 19 20
3 13 160 159
3 160 161 159
3 159 161 19
3 161 18 19
3 14 15 160
3 15 16 160
3 160 16 161
3 16 17 161
3 161 17 18
3 17 1 18
